<svg width="48" height="48" viewBox="0 0 48 48" xmlns="http://www.w3.org/2000/svg">
  <defs>
    <!-- Main brown color -->
    <linearGradient id="brownGradient" x1="30%" y1="30%" x2="70%" y2="70%">
      <stop offset="0%" style="stop-color:#9B5D3F;stop-opacity:1" />
      <stop offset="100%" style="stop-color:#7A4830;stop-opacity:1" />
    </linearGradient>
    <!-- Dark shadow -->
    <linearGradient id="darkShadow" x1="0%" y1="0%" x2="100%" y2="100%">
      <stop offset="0%" style="stop-color:#5C3622;stop-opacity:1" />
      <stop offset="100%" style="stop-color:#4A2B1A;stop-opacity:1" />
    </linearGradient>
  </defs>

  <!-- Shadow underneath -->
  <ellipse cx="25" cy="26" rx="18" ry="13" fill="#1a4d2e" opacity="0.25" transform="rotate(-30 25 26)" />

  <!-- Main football body -->
  <ellipse cx="24" cy="24" rx="18" ry="13" fill="url(#brownGradient)" transform="rotate(-30 24 24)" />

  <!-- Shadow side (darker half) -->
  <path d="M 24 24 Q 14 30 10 24 Q 14 18 24 24 Z" fill="url(#darkShadow)" opacity="0.6" transform="rotate(-30 24 24)" />

  <!-- White stripe - left end -->
  <path d="M 8 26 Q 10 22 12 20 L 13 21 Q 11 23 9 27 Z" fill="#FFFFFF" />

  <!-- White stripe - right end -->
  <path d="M 37 19 Q 35 21 33 23 L 32 22 Q 34 20 36 18 Z" fill="#FFFFFF" />

  <!-- Laces - center seam -->
  <line x1="17" y1="17" x2="28" y2="28" stroke="#FFFFFF" stroke-width="2" stroke-linecap="round" />

  <!-- Lace stitches -->
  <line x1="18" y1="19" x2="21" y2="16" stroke="#FFFFFF" stroke-width="1.8" stroke-linecap="round" />
  <line x1="20.5" y1="21.5" x2="23.5" y2="18.5" stroke="#FFFFFF" stroke-width="1.8" stroke-linecap="round" />
  <line x1="23" y1="24" x2="26" y2="21" stroke="#FFFFFF" stroke-width="1.8" stroke-linecap="round" />
  <line x1="25.5" y1="26.5" x2="28.5" y2="23.5" stroke="#FFFFFF" stroke-width="1.8" stroke-linecap="round" />

  <line x1="19" y1="18" x2="16" y2="21" stroke="#FFFFFF" stroke-width="1.8" stroke-linecap="round" />
  <line x1="21.5" y1="20.5" x2="18.5" y2="23.5" stroke="#FFFFFF" stroke-width="1.8" stroke-linecap="round" />
  <line x1="24" y1="23" x2="21" y2="26" stroke="#FFFFFF" stroke-width="1.8" stroke-linecap="round" />
  <line x1="26.5" y1="25.5" x2="23.5" y2="28.5" stroke="#FFFFFF" stroke-width="1.8" stroke-linecap="round" />
</svg>
